:SAMPLES-PER-SECOND 30
:FULLY-SPECIFIED
:DEGREES
345
root  -3.95139 36.0694 -36.4507 156.293 -87.4435 -159.405
RightUpLeg  -22.0634 -26.3595 -10.7202
RightLeg  47.3543 -6.14459 -7.43399
RightFoot  -10.6629 -0.142937 12.0939
RightToes  -1.33073e-015 0 -3.6325e-017
Spine  25.4217 0.918583 0.998478
Spine1  -14.0338 1.08771 0.496483
HEad  -12.233 13.9507 -4.86005
LeftShoulder1  0.00957959 3.52154 -3.9638
LeftArm  -54.2741 -2.9563 -27.5524
LeftForeArm  81.2191 -73.7269 -132.684
LeftHand  -0.152031 4.8598 34.1231
RightShoulder  0.35024 -1.44016 9.58873
RightArm  -63.3576 -11.3115 23.5602
RightForeArm  17.8767 76.839 65.0787
RightHand  -3.19314 8.32889 -27.8548
LeftUpLeg  -27.5162 35.1341 4.54156
LeftLeg  62.8455 0.991372 2.86088
LeftFoot  -8.31322 0.514343 -17.9307
LeftToes  -4.0021e-011 8.38769e-011 -3.99229e-011
346
root  -4.47368 37.7589 -36.1415 -161.16 -87.8039 159.072
RightUpLeg  -16.1155 -25.9934 -12.7901
RightLeg  35.2181 -7.99953 -6.27529
RightFoot  -5.52559 -0.671248 12.3434
RightToes  -1.33073e-015 0 -3.6325e-017
Spine  22.4403 0.822734 0.0202877
Spine1  -15.1242 0.865246 -0.905276
HEad  -6.93544 14.5585 -1.88141
LeftShoulder1  0.580659 0.598733 -13.367
LeftArm  -50.014 3.00374 -26.5909
LeftForeArm  77.2297 -74.9438 -127.252
LeftHand  -0.293581 4.36278 33.1752
RightShoulder  0.785786 0.0911737 15.3389
RightArm  -59.7593 -14.5909 25.1756
RightForeArm  33.4387 77.6072 69.3893
RightHand  -4.07751 19.0586 -19.2507
LeftUpLeg  -23.4931 36.229 5.2241
LeftLeg  55.3163 -2.08438 -2.81547
LeftFoot  -2.34849 1.42593 -17.8796
LeftToes  -4.0021e-011 8.38769e-011 -3.99229e-011
347
root  -4.82522 39.0868 -35.7296 -136.915 -87.5428 136.084
RightUpLeg  -11.1141 -25.2665 -13.8665
RightLeg  23.4111 -10.4213 -5.09796
RightFoot  1.11663 -1.45353 13.3009
RightToes  -1.33073e-015 0 -3.6325e-017
Spine  19.3536 0.872247 -0.0608852
Spine1  -14.899 0.971076 -2.28142
HEad  -5.83224 12.9957 -1.65511
LeftShoulder1  1.04701 -1.00066 -16.7168
LeftArm  -48.7245 6.86583 -25.8298
LeftForeArm  66.3705 -76.3481 -118.052
LeftHand  -0.463786 3.70895 31.7345
RightShoulder  0.920486 0.453247 16.7092
RightArm  -59.7455 -16.755 25.9408
RightForeArm  32.9064 77.6129 69.9276
RightHand  -3.36889 19.3429 -15.9547
LeftUpLeg  -19.9033 33.9614 6.41675
LeftLeg  46.9986 0.749429 1.0407
LeftFoot  -2.61081 1.1904 -15.1292
LeftToes  -4.0021e-011 8.38769e-011 -3.99229e-011
348
root  -4.95697 39.817 -35.3279 -119.151 -87.5653 119.334
RightUpLeg  -8.36619 -24.1162 -14.5298
RightLeg  15.96 -14.1821 -4.47718
RightFoot  7.41655 -2.25494 13.9342
RightToes  -1.33073e-015 0 -3.6325e-017
Spine  16.9264 1.07113 -0.145806
Spine1  -13.5178 1.22435 -2.92924
HEad  -6.67378 11.5287 -1.67813
LeftShoulder1  0.908769 -0.701317 -14.6221
LeftArm  -49.0514 6.15172 -25.3528
LeftForeArm  58.3287 -77.035 -111.151
LeftHand  -0.619196 3.07464 30.6808
RightShoulder  0.689094 -0.243932 14.3081
RightArm  -62.4498 -17.7124 26.1045
RightForeArm  27.4713 77.6577 77.4838
RightHand  -2.14142 7.27027 -21.9911
LeftUpLeg  -17.0194 28.5672 7.91978
LeftLeg  39.0432 11.3666 10.0545
LeftFoot  -2.32383 0.728093 -9.46131
LeftToes  -4.0021e-011 8.38769e-011 -3.99229e-011
349
root  -4.86678 39.9262 -34.9091 -111.429 -87.7012 112.644
RightUpLeg  -9.34697 -23.5677 -14.5121
RightLeg  15.1194 -17.9583 -4.88728
RightFoot  10.3709 -2.53541 13.5331
RightToes  -1.33073e-015 0 -3.6325e-017
Spine  16.2846 1.28118 0.54186
Spine1  -13.3393 1.58261 -3.6915
HEad  -7.19504 10.6419 -1.42922
LeftShoulder1  0.488185 0.699905 -10.0347
LeftArm  -51.2622 1.83311 -23.071
LeftForeArm  53.404 -77.4587 -105.498
LeftHand  -0.700522 2.68046 29.6655
RightShoulder  0.35628 -1.51763 10.8406
RightArm  -65.8995 -16.6253 23.2002
RightForeArm  18.4278 77.4844 82.9413
RightHand  -0.277837 -4.99874 -36.4667
LeftUpLeg  -15.7772 23.2927 9.57824
LeftLeg  33.0864 20.7725 14.4504
LeftFoot  2.42016 0.352009 -2.99104
LeftToes  -4.0021e-011 8.38769e-011 -3.99229e-011
350
root  -4.62501 39.4961 -34.4479 -122.728 -87.7421 125.268
RightUpLeg  -14.0638 -26.4299 -13.1996
RightLeg  19.6143 -17.0985 -6.87345
RightFoot  8.92116 -2.31542 13.2583
RightToes  -1.33073e-015 0 -3.6325e-017
Spine  17.807 1.55097 1.76622
Spine1  -15.9368 2.01221 -4.91558
HEad  -8.63371 9.80313 -2.01369
LeftShoulder1  0.167378 2.17368 -4.75409
LeftArm  -55.3825 -3.08068 -18.3333
LeftForeArm  41.4808 -77.8617 -94.0424
LeftHand  -0.717372 2.45706 28.0889
RightShoulder  0.0602812 -3.08877 6.41788
RightArm  -67.5916 -12.1791 16.0927
RightForeArm  -4.95122 75.8943 60.7449
RightHand  -0.576838 -3.68894 -38.8579
LeftUpLeg  -16.8444 21.8212 11.0196
LeftLeg  30.0128 20.1143 12.4468
LeftFoot  5.99248 0.324112 -2.27028
LeftToes  -4.0021e-011 8.38769e-011 -3.99229e-011
351
root  -4.26299 38.5201 -33.9495 -139.394 -87.6553 142.673
RightUpLeg  -20.0553 -27.2473 -12.6619
RightLeg  28.1192 -15.6358 -9.06643
RightFoot  4.7976 -1.96305 14.039
RightToes  -1.33073e-015 0 -3.6325e-017
Spine  21.2775 1.7412 2.38861
Spine1  -19.6801 2.22111 -5.14989
HEad  -11.5788 9.0196 -4.02421
LeftShoulder1  -0.0124478 3.72197 1.52144
LeftArm  -60.5428 -6.30114 -12.8868
LeftForeArm  17.2924 -77.2743 -73.2351
LeftHand  -0.674155 2.57853 27.5515
RightShoulder  -0.0901082 -4.59783 -0.207249
RightArm  -69.5424 -7.24454 9.78447
RightForeArm  -19.1197 73.2727 47.1467
RightHand  -1.34883 -1.33521 -37.5562
LeftUpLeg  -19.7826 24.2167 12.1193
LeftLeg  32.5441 12.6948 8.86314
LeftFoot  3.68041 1.03983 -8.34248
LeftToes  -4.0021e-011 8.38769e-011 -3.99229e-011
352
root  -3.76469 37.0665 -33.441 -139.297 -87.9271 141.919
RightUpLeg  -25.2729 -28.1806 -13.6494
RightLeg  38.2009 -12.4781 -10.568
RightFoot  0.441357 -1.53936 14.837
RightToes  -1.33073e-015 0 -3.6325e-017
Spine  25.4828 1.53288 2.1903
Spine1  -21.248 2.01039 -4.19392
HEad  -13.8154 9.74579 -5.45451
LeftShoulder1  -0.00624279 5.76412 9.07077
LeftArm  -66.2162 -7.40674 -8.19034
LeftForeArm  -11.8332 -73.4475 -47.7385
LeftHand  -0.482813 3.5073 29.6257
RightShoulder  -0.0393871 -5.42186 -7.42603
RightArm  -71.4236 -4.71891 4.17018
RightForeArm  -36.6186 67.0758 32.3729
RightHand  -1.63498 -0.20994 -35.6731
LeftUpLeg  -23.3535 27.5997 12.8139
LeftLeg  40.1185 6.47166 6.21432
LeftFoot  -3.1864 1.10189 -15.0879
LeftToes  -4.0021e-011 8.38769e-011 -3.99229e-011
353
root  -3.20479 35.5177 -32.9466 -111.917 -88.506 113.53
RightUpLeg  -29.3519 -29.9968 -15.4334
RightLeg  46.8721 -9.31233 -10.7971
RightFoot  -3.19599 -1.07195 14.6629
RightToes  -1.33073e-015 0 -3.6325e-017
Spine  28.4272 0.908155 1.97603
Spine1  -19.2686 1.50232 -3.83072
HEad  -16.5537 12.5928 -3.91043
LeftShoulder1  0.251675 8.10738 15.9464
LeftArm  -72.0819 -7.73309 -3.40123
LeftForeArm  -32.8269 -65.1152 -28.5719
LeftHand  -0.040097 5.22288 33.0287
RightShoulder  0.0417833 -5.69234 -11.6584
RightArm  -69.0339 -5.53478 -4.86678
RightForeArm  -53.9672 57.2239 20.5158
RightHand  -1.48074 0.111856 -30.713
LeftUpLeg  -27.4305 30.4683 12.5293
LeftLeg  48.694 3.20978 4.38808
LeftFoot  -10.2523 0.251509 -17.3408
LeftToes  -4.0021e-011 8.38769e-011 -3.99229e-011
354
root  -2.80032 34.4228 -32.4304 -64.8563 -88.6484 66.3448
RightUpLeg  -32.3201 -32.3755 -16.5748
RightLeg  51.9739 -7.21238 -10.1654
RightFoot  -5.61277 -0.785063 14.887
RightToes  -1.33073e-015 0 -3.6325e-017
Spine  29.0429 0.341413 2.23325
Spine1  -15.466 1.1699 -4.23407
HEad  -20.3718 13.9239 -3.43003
LeftShoulder1  0.552817 10.0171 19.4035
LeftArm  -77.4692 -8.69137 0.994219
LeftForeArm  -41.9258 -57.3665 -20.2526
LeftHand  0.433122 6.74709 35.2844
RightShoulder  0.0586672 -6.26393 -11.9917
RightArm  -65.4385 -7.42176 -12.7429
RightForeArm  -60.4777 53.8583 18.3697
RightHand  -1.38563 0.686123 -26.2844
LeftUpLeg  -31.606 32.4324 11.2339
LeftLeg  54.8245 1.54521 2.91165
LeftFoot  -15.0197 -0.40129 -15.2799
LeftToes  -4.0021e-011 8.38769e-011 -3.99229e-011
355
root  -2.71558 34.1889 -31.9082 -28.2593 -88.2404 29.7595
RightUpLeg  -32.3315 -33.7295 -17.3775
RightLeg  52.3667 -6.77274 -9.72506
RightFoot  -4.97795 -0.959656 16.3617
RightToes  -1.33073e-015 0 -3.6325e-017
Spine  28.2095 0.202905 2.34275
Spine1  -12.8125 1.14527 -4.20368
HEad  -24.1493 12.3456 -4.9275
LeftShoulder1  0.605201 10.5079 19.4975
LeftArm  -80.1192 -9.77545 0.161937
LeftForeArm  -39.6801 -59.082 -22.136
LeftHand  0.502432 6.92424 36.0137
RightShoulder  0.0231565 -6.86938 -10.3543
RightArm  -67.3561 -8.30043 -12.1417
RightForeArm  -55.2067 57.3974 20.9001
RightHand  -1.52009 1.31445 -26.0815
LeftUpLeg  -33.1028 32.6509 10.1875
LeftLeg  56.5361 0.931846 2.09195
LeftFoot  -16.8788 -0.52746 -12.8467
LeftToes  -4.0021e-011 8.38769e-011 -3.99229e-011
356
root  -2.87954 34.8482 -31.3819 -13.8428 -87.6048 14.6448
RightUpLeg  -28.5757 -32.331 -18.5701
RightLeg  48.0254 -9.36607 -11.2124
RightFoot  -0.18789 -1.6198 16.6192
RightToes  -1.33073e-015 0 -3.6325e-017
Spine  27.5082 0.212124 1.93754
Spine1  -12.9336 0.983574 -3.55666
HEad  -24.6793 8.98905 -7.21243
LeftShoulder1  0.374719 9.05606 17.2679
LeftArm  -76.4247 -9.64318 -7.74503
LeftForeArm  -20.5536 -70.2015 -38.634
LeftHand  0.289105 6.25029 36.3143
RightShoulder  -0.0449844 -6.33895 -7.64071
RightArm  -71.7712 -7.76614 -3.01393
RightForeArm  -39.9212 64.0738 27.696
RightHand  -1.84241 1.66807 -29.7844
LeftUpLeg  -30.3831 31.164 9.87837
LeftLeg  53.4013 1.40155 2.52211
LeftFoot  -16.2374 -0.433989 -12.4082
LeftToes  -4.0021e-011 8.38769e-011 -3.99229e-011
